<?xml version="1.0" encoding="utf-8"?>
<!-- Generator: Adobe Illustrator 19.2.0, SVG Export Plug-In . SVG Version: 6.00 Build 0)  -->
<svg version="1.1" id="Layer_1" xmlns:svg="http://www.w3.org/2000/svg"
	 xmlns="http://www.w3.org/2000/svg" xmlns:xlink="http://www.w3.org/1999/xlink" x="0px" y="0px" viewBox="0 0 384 75"
	 style="enable-background:new 0 0 384 75;" xml:space="preserve">
<style type="text/css">
	.st0{fill:#FFFFFF;}
</style>
<rect width="384" height="75"/>
<g>
	<path class="st0" d="M501.8,37.5c-1.3-10.1-11.8-18-21.8-18s-20.3,7.9-21.8,18h-0.1C456.8,50.1,444.4,60,432,60
		c-13-0.3-24-9.7-26.2-22.5h-0.1c-1.3-10.1-11.8-18-21.8-18s-20.3,7.9-21.8,18h-0.1C360.8,50.1,348.4,60,336,60
		c-13-0.3-24-9.7-26.2-22.5h-0.1c-1.3-10.1-11.8-18-21.8-18s-20.3,7.9-21.8,18h-0.1C264.8,50.1,252.4,60,240,60
		c-13-0.3-24-9.7-26.2-22.5h-0.1c-1.3-10.1-11.8-18-21.8-18s-20.3,7.9-21.8,18h-0.1C168.8,50.1,156.4,60,144,60
		c-13-0.3-24-9.7-26.2-22.5h-0.1c-1.3-10.1-11.8-18-21.8-18s-20.3,7.9-21.8,18h-0.1C72.8,50.1,60.4,60,48,60
		c-13-0.3-24-9.7-26.2-22.5h-0.1C20.4,27.4,10,19.5,0,19.5s-20.3,7.9-21.8,18h-4.4C-23.9,24.7-13,15.3,0,15
		c12.4,0,24.8,9.9,26.1,22.5h0.1c1.5,10.1,11.8,18,21.8,18s20.5-7.9,21.8-18h0.1C72.1,24.7,83,15.3,96,15c12.4,0,24.8,9.9,26.1,22.5
		h0.1c1.5,10.1,11.8,18,21.8,18s20.5-7.9,21.8-18h0.1C168.1,24.7,179,15.3,192,15c12.4,0,24.8,9.9,26.1,22.5h0.1
		c1.5,10.1,11.8,18,21.8,18s20.5-7.9,21.8-18h0.1C264.1,24.7,275,15.3,288,15c12.4,0,24.8,9.9,26.1,22.5h0.1
		c1.5,10.1,11.8,18,21.8,18s20.5-7.9,21.8-18h0.1C360.1,24.7,371,15.3,384,15c12.4,0,24.8,9.9,26.1,22.5h0.1
		c1.5,10.1,11.8,18,21.8,18s20.5-7.9,21.8-18h0.1C456.1,24.7,467,15.3,480,15c12.4,0,24.8,9.9,26.1,22.5H501.8z"/>

		<animateTransform  accumulate="none" additive="replace" attributeName="transform" calcMode="linear" dur="1500ms" fill="remove" from="0 0" repeatCount="indefinite" restart="always" to="-96 0" type="translate">
		</animateTransform>
</g>
</svg>
